<svg width="220" height="147" viewBox="0 0 220 147" fill="none" xmlns="http://www.w3.org/2000/svg">
<path d="M32.3794 80.7193H38.6381L40.037 85.9102H45.7065L37.9753 58.6671H32.8213L25.3846 85.9102H31.0541L32.3794 80.7193ZM37.2021 75.5653H33.7416L35.4718 66.656L37.2021 75.5653ZM55.3513 58.1514C48.6509 58.1514 45.3377 63.7474 45.3377 72.2517V72.2886C45.3377 80.8298 48.6509 86.4259 55.3513 86.4259C57.6782 86.4259 59.5962 85.749 61.1093 84.5101C61.248 84.9135 61.3273 85.3683 61.3273 85.9104H67.1931C67.1931 83.785 66.0371 81.5361 64.3331 79.523C65.0204 77.4741 65.3649 75.0348 65.3649 72.2886C65.3649 63.7476 62.0517 58.1514 55.3513 58.1514ZM55.3513 63.3054C58.223 63.3054 59.6221 65.7357 59.6221 72.2886C59.6221 73.4264 59.5772 74.4319 59.4924 75.3299C57.3052 73.9353 55.0513 73.0571 53.3216 73.0571C53.3216 78.6332 54.1816 78.6093 55.0034 79.0837C55.4831 79.3607 56.4659 79.8834 57.4927 80.5972C56.9027 81.0561 56.192 81.2712 55.3513 81.2712C52.4798 81.2712 51.0813 78.8419 51.0813 72.3257V72.2886C51.0813 65.7357 52.4798 63.3054 55.3513 63.3054ZM68.4882 58.6671V78.1424C68.4882 80.5352 69.1141 82.6337 70.5131 84.0694C71.9489 85.5421 74.1947 86.4257 77.4711 86.4257C80.7478 86.4257 82.9934 85.5421 84.4292 84.0694C85.865 82.6337 86.454 80.5351 86.454 78.1422V58.6669H80.8581V77.2219C80.8581 78.5841 80.6372 79.578 80.1217 80.2039C79.5696 80.8666 78.7229 81.1611 77.4711 81.1611C76.2193 81.1611 75.3726 80.8666 74.8573 80.2039C74.305 79.578 74.0843 78.5841 74.0843 77.2219V58.6671H68.4882Z" fill="#2D4780"/>
<path d="M128.114 85.9101H133.71V63.8212H134.998C136.36 63.8212 137.281 64.0419 137.87 64.5575C138.9 65.4041 139.158 66.5454 139.158 67.8707C139.158 68.9384 138.864 70.1166 137.943 71C137.244 71.6996 136.176 71.9572 135.182 72.0307C134.741 72.0676 134.409 72.0676 133.783 72.0676L139.784 85.9101H146.043L140.889 75.0497C142.177 74.3501 143.282 73.2458 144.092 71.4786C144.644 70.2637 144.901 68.8279 144.901 67.3553C144.901 64.7046 144.092 62.7534 142.693 61.0599C141.514 59.661 139.048 58.667 135.182 58.667H128.114V85.9101ZM147.405 85.9101H153V58.667H147.405L147.405 85.9101ZM156.34 58.667V78.1423C156.34 80.5352 156.965 82.6336 158.364 84.0693C159.8 85.542 162.046 86.4256 165.322 86.4256C168.599 86.4256 170.845 85.542 172.28 84.0693C173.716 82.6336 174.305 80.535 174.305 78.1421V58.6668H168.709V77.2218C168.709 78.584 168.488 79.5779 167.973 80.2038C167.421 80.8665 166.574 81.1611 165.322 81.1611C164.07 81.1611 163.224 80.8665 162.708 80.2038C162.156 79.5779 161.935 78.584 161.935 77.2218V58.667H156.34ZM176.65 77.3322C176.65 83.0753 179.374 86.4256 185.596 86.4256C190.787 86.4256 194.615 83.2963 194.615 78.179C194.615 72.9881 191.67 71.1473 188.725 69.9691C185.78 68.7912 182.834 68.3125 182.834 65.7355C182.834 64.0789 183.902 62.7534 185.669 62.7534C187.473 62.7534 188.578 63.9316 188.651 65.9195H194.1C193.29 60.5445 190.492 58.1147 185.448 58.1147C180.257 58.1147 177.091 61.4281 177.091 66.5823C177.091 71.184 180.037 72.8775 182.982 74.0557C185.927 75.197 188.872 75.7859 188.872 78.2527C188.872 80.2038 187.768 81.4924 185.706 81.4924C183.276 81.4924 182.319 80.1669 182.245 77.3322H176.65Z" fill="#2D4780"/>
<path fill-rule="evenodd" clip-rule="evenodd" d="M106.479 41.4493L80.5135 102.306L87.3731 105.218L106.479 60.2061L121.157 94.7837L127.903 91.92L106.479 41.4493Z" fill="#57BFDA"/>
<path fill-rule="evenodd" clip-rule="evenodd" d="M87.3727 105.217C94.8537 87.2607 111.141 71.7219 126.166 71.7219V65.4365C106.288 65.4365 89.4987 83.8154 80.5132 102.306L87.3727 105.217Z" fill="url(#paint0_linear_113_1143)"/>
<defs>
<linearGradient id="paint0_linear_113_1143" x1="89.8322" y1="98.6588" x2="95.8321" y2="84.2339" gradientUnits="userSpaceOnUse">
<stop stop-color="#54BCD7"/>
<stop offset="1" stop-color="#C5E5E2"/>
</linearGradient>
</defs>
</svg>
