<svg width="220" height="147" viewBox="0 0 220 147" fill="none" xmlns="http://www.w3.org/2000/svg">
<path d="M26.9205 32.1005L25.3845 41.6909C25.3845 41.6909 45.3795 41.9171 49.705 41.9171C54.032 41.9171 56.0895 47.9529 55.4066 52.2784C54.7192 56.6068 51.8346 62.3025 47.5062 62.4409H38.1074L41.1231 43.7009H31.8656L26.7764 72.1178H47.0985C50.2554 72.1178 63.438 66.7635 64.9465 53.8605C66.4523 40.9517 58.0764 32.0947 52.032 32.0947C45.9919 32.0947 26.9205 32.1005 26.9205 32.1005ZM82.1042 43.2897C90.4123 43.2897 96.448 49.3961 96.0374 56.4679C95.7593 61.2645 93.5663 72.1187 93.5663 72.1187H84.5752C84.5752 72.1187 85.774 63.6506 86.6299 58.7993C87.5924 53.3787 81.1417 52.4162 78.1893 54.1322C75.9185 55.4578 74.5064 59.5917 75.7211 61.6839C77.2297 64.2919 81.9688 62.0945 82.2396 61.8207C82.5148 61.5456 83.1993 70.1259 83.1993 70.1259C83.1993 70.1259 80.5927 73.3535 74.0757 72.5293C69.1479 71.9068 64.0645 64.436 65.7676 57.014C67.828 48.0258 76.0654 43.2897 82.1042 43.2897ZM101.044 43.7006H110.315L105.715 71.9806H96.1752L101.044 43.7006ZM26.653 25.3407C100.776 33.8906 103.25 31.4137 106.301 31.4137C109.348 31.4137 111.825 33.8906 111.825 36.9409C111.825 39.9913 109.348 42.4681 106.301 42.4681C103.25 42.4681 100.776 39.9913 100.776 36.9409M108.119 72.1183H117.248C117.248 72.1183 118.895 60.9963 119.309 57.9776C119.722 54.9576 122.463 54.1334 124.045 53.8596L123.147 43.4248C123.147 43.4248 113.61 43.5631 111.411 53.5167C109.776 60.9285 108.119 72.1183 108.119 72.1183M125.28 43.7006H134.268L137.016 58.3874L130.219 72.1189L125.28 43.7006Z" fill="#E41D25"/>
<path d="M145.458 43.7004H155.547C155.547 43.7004 143.609 72.6691 142.305 75.5509C140.994 78.4326 137.769 83.5809 132.006 83.5809H116.558L118.483 74.1807H127.886C131.386 74.1807 133.171 73.6288 134.684 69.4358C135.918 66.008 145.458 43.7004 145.458 43.7004Z" fill="#E41D25"/>
<path d="M87.1811 115.085L77.5344 114.953C77.5344 114.953 81.4435 85.9812 82.7547 83.1024C84.0573 80.2177 87.2142 74.3159 92.9748 74.3159H115.29L113.572 83.4424H97.4385C93.9371 83.4424 91.5295 85.1845 90.6852 89.5517C89.8595 93.8067 87.181 115.085 87.181 115.085" fill="#234379"/>
<path d="M93.4342 89.6901L91.9228 98.2706H103.796L104.888 89.6901H93.4342ZM121.571 85.8741C129.879 85.8741 135.918 91.9805 135.507 99.0523C135.229 103.852 133.036 114.706 133.036 114.706H124.045C124.045 114.706 125.252 106.232 126.107 101.389C127.066 95.966 120.611 95.0035 117.659 96.7196C115.379 98.0452 113.973 102.175 115.191 104.271C116.699 106.876 121.435 104.682 121.715 104.408C121.987 104.13 122.675 112.713 122.675 112.713C122.675 112.713 120.065 115.941 113.539 115.12C108.614 114.494 103.537 107.017 105.234 99.6014C107.295 90.6132 115.536 85.8741 121.571 85.8741ZM135.369 114.948H144.498C144.498 114.948 146.145 103.826 146.556 100.807C146.969 97.7869 149.713 96.9656 151.295 96.6947L150.397 86.2541C150.397 86.2541 140.857 86.3896 138.661 96.3431C137.026 103.755 135.369 114.948 135.369 114.948ZM150.473 114.948C150.473 114.948 152.808 99.9842 153.354 96.9656C153.901 93.9455 157.874 85.6375 164.955 85.6375C171.886 85.6375 173.119 89.5465 174.63 91.0638C176.276 89.8217 179.093 85.6375 185.267 85.6375C190.696 85.6375 194.813 92.7769 194.608 96.8273C194.399 100.873 192.474 114.948 192.474 114.948H182.797C182.797 114.948 184.525 104.915 184.995 100.463C185.411 96.5506 183.348 95.4569 182.113 95.4569C181.009 95.4569 178.682 96.6947 178.269 100.058C177.675 104.915 176.276 114.948 176.276 114.948H166.6C166.6 114.948 168.453 103.828 169.001 100.193C169.553 96.5506 167.149 96.1212 165.635 96.006C163.854 95.8705 162.481 97.3114 162.07 99.6441C161.657 101.974 159.874 114.948 159.874 114.948H150.473Z" fill="#234379"/>
</svg>
