<svg width="170" height="26" viewBox="0 0 170 26" fill="none" xmlns="http://www.w3.org/2000/svg">
<path d="M23.2841 24.1154C19.2185 24.1154 15.7516 21.018 15.7516 16.4971C15.7516 12.1121 19.2507 8.85179 23.472 8.85179C25.1737 8.85179 26.4347 9.3448 27.4432 10.3855C28.0104 9.50911 28.798 9.01654 29.8064 9.01654C31.5086 9.01654 32.2649 10.0292 32.2649 12.1405V20.8274C32.2649 22.9369 31.4763 23.9784 29.8064 23.9784C28.7037 23.9784 27.979 23.5114 27.4432 22.4709C26.4347 23.5403 24.9856 24.1154 23.2841 24.1154ZM24.1025 19.9768C25.9307 19.9768 27.285 18.5793 27.285 16.4423C27.285 14.3324 25.8988 12.9893 24.1025 12.9893C22.3068 12.9893 20.8891 14.3042 20.8891 16.4423C20.8891 18.6352 22.2754 19.9768 24.1026 19.9768M99.9315 19.7881C101.822 19.7881 103.208 18.3636 103.208 16.1156C103.208 13.9238 101.759 12.4988 99.9315 12.4988C98.1041 12.4988 96.6541 13.8689 96.6541 16.1156C96.6541 18.3914 98.0403 19.7881 99.9315 19.7881ZM99.9315 8.44367C104.846 8.44367 108.312 11.6768 108.312 16.1703C108.312 20.6642 104.846 23.8989 99.9315 23.8989C95.0472 23.8989 91.5165 20.6642 91.5165 16.1703C91.5165 11.6768 95.0472 8.44367 99.9315 8.44367ZM121.157 19.7881C123.048 19.7881 124.434 18.3636 124.434 16.1156C124.434 13.9238 122.984 12.4988 121.157 12.4988C119.328 12.4988 117.878 13.8689 117.878 16.1156C117.878 18.3914 119.267 19.7881 121.157 19.7881ZM121.157 8.44367C126.072 8.44367 129.538 11.6768 129.538 16.1703C129.538 20.6642 126.072 23.8989 121.157 23.8989C116.273 23.8989 112.743 20.6642 112.743 16.1703C112.743 11.6768 116.273 8.44367 121.157 8.44367ZM142.393 19.7048C144.251 19.7048 145.638 18.3085 145.638 16.0885C145.638 13.8143 144.251 12.4163 142.393 12.4163C140.533 12.4163 139.114 13.8417 139.114 16.0885C139.114 18.2806 140.533 19.7048 142.393 19.7048ZM141.669 23.7345C137.633 23.7345 134.01 20.4458 134.01 16.0338C134.01 11.6491 137.54 8.41655 141.669 8.41655C143.18 8.41655 144.441 8.79967 145.575 9.64904V5.70263C145.575 3.59268 146.363 2.55188 148.064 2.55188C149.734 2.55188 150.522 3.59268 150.522 5.70263V20.5006C150.522 22.6098 149.766 23.6524 148.064 23.6524C147.088 23.6524 146.268 23.1579 145.701 22.2537C144.692 23.2126 143.305 23.7346 141.669 23.7346" fill="#FFFF00"/>
<path d="M24.1027 18.3975C23.0792 18.3975 22.4687 17.6674 22.4687 16.4421C22.4687 15.287 23.0946 14.5685 24.1027 14.5685C25.0922 14.5685 25.7066 15.287 25.7066 16.4421C25.7066 17.6468 25.0922 18.3975 24.1027 18.3975ZM24.1027 11.4095C21.3258 11.4095 19.3093 13.5267 19.3093 16.4421C19.3093 19.4053 21.3258 21.5572 24.1027 21.5572C26.8624 21.5572 28.8653 19.4053 28.8653 16.4421C28.8653 13.5267 26.8624 11.4095 24.1027 11.4095Z" fill="#FFFF00"/>
<path d="M30.6846 20.8271C30.6846 22.3984 30.2776 22.3984 29.8064 22.3984C29.3718 22.3984 29.1505 22.3369 28.8471 21.7482C28.7317 21.5234 28.5641 21.3295 28.3582 21.183C28.1523 21.0365 27.9142 20.9416 27.664 20.9063C27.4139 20.8712 27.159 20.8965 26.9207 20.9801C26.6824 21.0637 26.4676 21.2032 26.2943 21.3869C25.5851 22.1384 24.544 22.5342 23.2841 22.5342C19.891 22.5342 17.331 19.9391 17.331 16.4972C17.331 13.0956 20.0293 10.4307 23.4723 10.4307C24.7445 10.4307 25.5928 10.7458 26.308 11.485C26.4732 11.6558 26.6749 11.7871 26.898 11.8689C27.1211 11.9507 27.3599 11.9809 27.5964 11.9573C27.833 11.9345 28.0614 11.8586 28.2644 11.735C28.4675 11.6115 28.6401 11.4437 28.7691 11.2441C29.139 10.6724 29.5014 10.5958 29.8064 10.5958C30.3354 10.5958 30.6846 10.5958 30.6846 12.1396V20.8271ZM29.8064 7.43574C28.8748 7.43574 28.0344 7.75124 27.3095 8.28742C26.2298 7.61839 24.9688 7.27179 23.4723 7.27179C19.9784 7.27179 16.9994 9.09628 15.4078 11.853C15.4445 11.6385 15.4547 11.4515 15.4547 11.3173C15.4547 10.051 14.6725 8.63181 12.6544 8.07277C14.9323 7.29767 14.9506 5.64652 14.9506 5.04326C14.9506 3.17941 13.4487 1.29749 10.0938 1.29749C6.07507 1.29749 3.62445 3.80997 3.39154 8.02066C0.724768 8.62986 0.384453 10.4626 0.384453 11.3173C0.384453 12.7385 1.33379 14.1547 3.37816 14.6027V20.8271C3.37816 25.0967 6.22351 25.5573 7.44687 25.5573C8.66102 25.5573 11.4845 25.0967 11.4845 20.8271V14.7311C13.1881 14.599 14.1607 14.0145 14.719 13.3539C14.3707 14.3319 14.1722 15.3861 14.1722 16.4973C14.1722 21.6545 18.1747 25.6947 23.2841 25.6947C24.7461 25.6947 26.0813 25.3095 27.2057 24.6338C27.915 25.2228 28.7708 25.5574 29.8064 25.5574C31.0209 25.5574 33.8429 25.0968 33.8429 20.8272V12.1397C33.8429 7.89463 31.0209 7.43583 29.8064 7.43583M68.7494 7.05563C66.7948 7.05563 65.2479 7.5389 63.7964 8.58342C62.454 7.57453 60.7811 7.05563 58.7923 7.05563C57.3243 7.05563 56.0805 7.37424 55.0068 7.98982C54.2778 7.43051 53.4277 7.11005 52.4579 7.11005C51.5736 7.11005 49.8444 7.35731 48.953 9.09814C48.2266 8.05141 46.9448 7.3543 45.4849 7.3543C44.3748 7.3543 43.292 7.6908 42.2832 8.30425C41.5568 7.75346 40.7119 7.43574 39.7492 7.43574C38.5251 7.43574 35.6801 7.89419 35.6801 12.1396V20.8271C35.6801 25.0967 38.5251 25.5573 39.7492 25.5573C40.9731 25.5573 43.8184 25.0967 43.8184 20.8271V16.3321C43.8184 15.7544 43.8499 15.5545 43.8728 15.4798C43.9145 15.4464 44.0416 15.3591 44.3875 15.2153L45.7441 14.7478C46.5981 14.477 47.6148 14.1509 48.3895 13.5455V20.5C48.3895 24.7699 51.2348 25.2302 52.4579 25.2302C53.6813 25.2302 56.527 24.7698 56.527 20.5V15.5684C56.527 13.9138 56.8891 13.9138 57.4372 13.9138C57.7452 13.9138 58.0945 13.9138 58.0945 15.6224V20.5C58.0945 24.7699 60.9402 25.2302 62.1644 25.2302C63.387 25.2302 66.2327 24.7698 66.2327 20.5V15.5684C66.2327 13.9138 66.5943 13.9138 67.1425 13.9138C67.4659 13.9138 67.8325 13.9138 67.8325 15.6224V20.5C67.8325 24.7699 70.6549 25.2302 71.8701 25.2302C73.0931 25.2302 75.9381 24.7698 75.9381 20.5V14.3074C75.9381 9.83381 73.1839 7.05563 68.7494 7.05563Z" fill="#FFFF00"/>
<path d="M90.8018 10.9926C90.8018 9.7248 90.0178 8.30549 88.0011 7.74769C90.2785 6.97179 90.2976 5.32065 90.2976 4.71668C90.2976 2.85203 88.7955 0.972412 85.4402 0.972412C81.421 0.972412 78.9707 3.48454 78.7384 7.69514C76.0718 8.30514 75.7311 10.1376 75.7311 10.9926C75.7311 12.4126 76.6807 13.8285 78.7254 14.2776V20.5002C78.7254 24.7704 81.5702 25.2308 82.7941 25.2308C84.0078 25.2308 86.8318 24.7704 86.8318 20.5002V14.4056C90.4994 14.1181 90.8018 11.7512 90.8018 10.9926Z" fill="#FFFF00"/>
<path d="M99.9317 22.319C95.9076 22.319 93.0975 19.7911 93.0975 16.1703C93.0975 12.5507 95.9076 10.0235 99.9317 10.0235C103.936 10.0235 106.734 12.5507 106.734 16.1704C106.734 19.7911 103.936 22.3191 99.9317 22.3191M99.9317 6.86377C94.1409 6.86377 89.939 10.7776 89.939 16.1703C89.939 21.5634 94.1409 25.4791 99.9317 25.4791C105.703 25.4791 109.893 21.5634 109.893 16.1703C109.893 10.7776 105.703 6.86377 99.9317 6.86377Z" fill="#FFFF00"/>
<path d="M99.9316 18.209C98.399 18.209 98.2329 16.745 98.2329 16.1159C98.2329 14.8591 98.8842 14.078 99.9316 14.078C100.962 14.078 101.629 14.8783 101.629 16.1159C101.629 17.426 100.994 18.209 99.9316 18.209ZM99.9316 10.9194C97.116 10.9194 95.0747 13.1048 95.0747 16.1159C95.0747 19.2077 97.0728 21.368 99.9316 21.368C102.746 21.368 104.787 19.1586 104.787 16.1159C104.787 13.1539 102.699 10.9194 99.9316 10.9194ZM121.157 22.319C117.132 22.319 114.322 19.7911 114.322 16.1703C114.322 12.5507 117.132 10.0235 121.157 10.0235C125.163 10.0235 127.959 12.5507 127.959 16.1704C127.959 19.7911 125.162 22.3191 121.157 22.3191M121.157 6.86377C115.366 6.86377 111.164 10.7776 111.164 16.1703C111.164 21.5634 115.366 25.4791 121.157 25.4791C126.929 25.4791 131.117 21.5634 131.117 16.1703C131.117 10.7776 126.929 6.86377 121.157 6.86377Z" fill="#FFFF00"/>
<path d="M121.157 18.209C119.624 18.209 119.458 16.745 119.458 16.1159C119.458 14.8591 120.11 14.078 121.157 14.078C122.187 14.078 122.854 14.8783 122.854 16.1159C122.854 17.426 122.218 18.209 121.157 18.209ZM121.157 10.9194C118.343 10.9194 116.299 13.1048 116.299 16.1159C116.299 19.2077 118.297 21.368 121.157 21.368C123.971 21.368 126.013 19.1586 126.013 16.1159C126.013 13.1539 123.926 10.9194 121.157 10.9194ZM148.943 20.5002C148.943 22.0722 148.574 22.0722 148.065 22.0722C147.801 22.0722 147.409 22.0035 147.039 21.4149C146.915 21.2168 146.748 21.0487 146.551 20.9228C146.354 20.7969 146.131 20.7164 145.899 20.687C145.667 20.6578 145.431 20.6806 145.208 20.7538C144.986 20.827 144.782 20.9487 144.612 21.1102C143.895 21.7938 142.876 22.1554 141.668 22.1554C138.316 22.1554 135.589 19.4092 135.589 16.0342C135.589 12.6474 138.26 9.99572 141.668 9.99572C142.868 9.99572 143.782 10.2786 144.628 10.913C144.863 11.0891 145.142 11.1962 145.435 11.2225C145.727 11.2487 146.021 11.193 146.283 11.0616C146.545 10.9303 146.765 10.7286 146.919 10.4791C147.073 10.2296 147.155 9.9422 147.155 9.64903V5.70297C147.155 4.13256 147.556 4.13256 148.065 4.13256C148.536 4.13256 148.943 4.13256 148.943 5.70297V20.5002ZM148.065 0.972412C146.841 0.972412 143.995 1.43272 143.995 5.70297V7.15489C143.268 6.953 142.501 6.83638 141.668 6.83638C136.488 6.83638 132.43 10.8762 132.43 16.0341C132.43 21.15 136.575 25.3144 141.668 25.3144C143.106 25.3144 144.402 24.9662 145.51 24.3296C146.244 24.8968 147.106 25.2308 148.065 25.2308C149.279 25.2308 152.102 24.7704 152.102 20.5002V5.70297C152.102 1.43272 149.279 0.972412 148.065 0.972412Z" fill="#FFFF00"/>
<path d="M142.393 18.1257C141.344 18.1257 140.694 17.3454 140.694 16.0893C140.694 14.7983 141.344 13.9954 142.393 13.9954C143.435 13.9954 144.059 14.778 144.059 16.0893C144.059 17.3641 143.435 18.1257 142.393 18.1257ZM142.393 10.8373C139.578 10.8373 137.535 13.0458 137.535 16.0893C137.535 19.0993 139.578 21.2844 142.393 21.2844C145.188 21.2844 147.217 19.0993 147.217 16.0892C147.217 13.0459 145.188 10.8372 142.393 10.8372M167.067 14.5552C168.343 14.0307 169.238 12.841 169.238 11.457C169.238 8.83901 166.053 6.86377 161.829 6.86377C157.39 6.86377 154.042 9.54552 154.042 13.1018C154.042 15.0643 154.936 16.3298 156.22 17.2587C154.719 17.6466 153.601 19.0198 153.601 20.6645C153.601 23.482 156.776 25.4502 161.325 25.4502C166.051 25.4502 169.615 22.6518 169.615 18.9372C169.615 16.849 168.524 15.5115 167.067 14.5552Z" fill="#FFFF00"/>
<path d="M10.7243 9.39966C12.7092 9.39966 13.8751 10.1398 13.8751 11.3178C13.8751 12.5236 12.8355 13.1813 10.7242 13.1813H9.90417V20.8273C9.90417 22.9369 9.14927 23.9784 7.44672 23.9784C5.74541 23.9784 4.95799 22.9369 4.95799 20.8273V13.1813H4.76825C3.00384 13.1813 1.96393 12.4411 1.96393 11.3178C1.96393 10.1398 2.97211 9.48208 4.95799 9.39957C4.95799 9.15311 4.92609 8.90655 4.92609 8.65974C4.92609 4.8787 6.8167 2.87793 10.0943 2.87793C12.1426 2.87793 13.3717 3.7273 13.3717 5.04345C13.3717 6.24811 12.5201 6.63229 11.1032 6.82399C10.0628 6.96091 10.0001 7.20817 10.0001 8.44101V9.39957M23.2842 24.1154C19.2186 24.1154 15.7517 21.018 15.7517 16.4971C15.7517 12.1121 19.2508 8.85179 23.4721 8.85179C25.1738 8.85179 26.4348 9.3448 27.4433 10.3855C28.0105 9.50911 28.7981 9.01654 29.8065 9.01654C31.5087 9.01654 32.265 10.0292 32.265 12.1405V20.8274C32.265 22.9369 31.4764 23.9784 29.8066 23.9784C28.7038 23.9784 27.9791 23.5114 27.4433 22.4709C26.4348 23.5403 24.9857 24.1154 23.2842 24.1154ZM24.1027 19.9768C25.9308 19.9768 27.2851 18.5793 27.2851 16.4423C27.2851 14.3324 25.8989 12.9893 24.1027 12.9893C22.307 12.9893 20.8892 14.3042 20.8892 16.4423C20.8892 18.6352 22.2755 19.9768 24.1027 19.9768M37.2597 12.1403C37.2597 10.0295 38.0476 9.01654 39.7501 9.01654C40.7248 9.01654 41.5142 9.45469 42.1126 10.3859C43.1533 9.42811 44.319 8.93358 45.4846 8.93358C46.8709 8.93358 48.0051 9.92032 48.0051 11.0714C48.0051 12.7979 45.7991 12.9345 43.7829 13.7565C42.3965 14.332 42.2386 14.8531 42.2386 16.3324V20.8274C42.2386 22.9369 41.4504 23.9784 39.7501 23.9784C38.0476 23.9784 37.2597 22.9369 37.2597 20.8273M49.9691 11.8142C49.9691 9.70381 50.7573 8.69014 52.458 8.69014C53.4353 8.69014 54.222 9.12873 54.8223 10.0599C55.8623 9.07352 57.1221 8.63537 58.792 8.63537C60.9347 8.63537 62.5734 9.32007 63.7394 10.6632C65.2513 9.21044 66.7014 8.63537 68.7495 8.63537C72.1845 8.63537 74.3598 10.5807 74.3598 14.308V20.5001C74.3598 22.6098 73.5709 23.6513 71.8698 23.6513C70.1673 23.6513 69.4117 22.6098 69.4117 20.5002V15.623C69.4117 13.4308 68.7495 12.3345 67.1423 12.3345C65.3471 12.3345 64.6538 13.4308 64.6538 15.5682V20.5001C64.6538 22.6098 63.8655 23.6513 62.1641 23.6513C60.4626 23.6513 59.6752 22.6098 59.6752 20.5002V15.623C59.6752 13.4308 59.0442 12.3345 57.4373 12.3345C55.6409 12.3345 54.9476 13.4308 54.9476 15.5682V20.5001C54.9476 22.6098 54.1605 23.6513 52.458 23.6513C50.7573 23.6513 49.9691 22.6098 49.9691 20.5002M86.0713 9.07317C88.0567 9.07317 89.2224 9.81406 89.2224 10.9922C89.2224 12.198 88.1819 12.8553 86.0713 12.8553H85.2523V20.5002C85.2523 22.6098 84.4955 23.6524 82.7941 23.6524C81.0919 23.6524 80.3049 22.6098 80.3049 20.5002V12.8553H80.1147C78.3505 12.8553 77.3106 12.1151 77.3106 10.9922C77.3106 9.81415 78.3191 9.15612 80.3049 9.07317C80.3049 8.82706 80.273 8.5806 80.273 8.33369C80.273 4.55274 82.1635 2.55188 85.4403 2.55188C87.4887 2.55188 88.7181 3.40134 88.7181 4.71696C88.7181 5.92321 87.8669 6.30509 86.4487 6.49794C85.4095 6.63451 85.3468 6.88212 85.3468 8.11461V9.07317M99.9316 19.7881C101.823 19.7881 103.208 18.3636 103.208 16.1156C103.208 13.9238 101.759 12.4988 99.9316 12.4988C98.1042 12.4988 96.6542 13.8689 96.6542 16.1156C96.6542 18.3914 98.0404 19.7881 99.9316 19.7881ZM99.9316 8.44367C104.846 8.44367 108.312 11.6768 108.312 16.1703C108.312 20.6642 104.846 23.8989 99.9316 23.8989C95.0473 23.8989 91.5166 20.6642 91.5166 16.1703C91.5166 11.6768 95.0473 8.44367 99.9316 8.44367ZM121.157 19.7881C123.048 19.7881 124.434 18.3636 124.434 16.1156C124.434 13.9238 122.984 12.4988 121.157 12.4988C119.329 12.4988 117.879 13.8689 117.879 16.1156C117.879 18.3914 119.267 19.7881 121.157 19.7881ZM121.157 8.44367C126.072 8.44367 129.538 11.6768 129.538 16.1703C129.538 20.6642 126.072 23.8989 121.157 23.8989C116.273 23.8989 112.743 20.6642 112.743 16.1703C112.743 11.6768 116.273 8.44367 121.157 8.44367ZM142.393 19.7048C144.251 19.7048 145.638 18.3085 145.638 16.0885C145.638 13.8143 144.251 12.4163 142.393 12.4163C140.533 12.4163 139.114 13.8417 139.114 16.0885C139.114 18.2806 140.533 19.7048 142.393 19.7048ZM141.669 23.7345C137.634 23.7345 134.01 20.4458 134.01 16.0338C134.01 11.6491 137.541 8.41655 141.669 8.41655C143.18 8.41655 144.441 8.79967 145.575 9.64904V5.70263C145.575 3.59268 146.364 2.55188 148.065 2.55188C149.734 2.55188 150.522 3.59268 150.522 5.70263V20.5006C150.522 22.6098 149.766 23.6524 148.065 23.6524C147.088 23.6524 146.268 23.1579 145.701 22.2537C144.692 23.2126 143.305 23.7346 141.669 23.7346M155.18 20.6642C155.18 19.569 156.031 18.7182 157.07 18.7182C158.614 18.7182 160.127 19.9798 161.671 19.9798C162.522 19.9798 163.058 19.569 163.058 19.1027C163.058 18.4177 162.144 18.1442 160.348 17.5134C157.29 16.418 155.62 15.4035 155.62 13.1017C155.62 10.5259 158.141 8.44323 161.829 8.44323C165.296 8.44323 167.659 9.94992 167.659 11.4578C167.659 12.4711 166.745 13.2666 165.61 13.2666C164.413 13.2666 162.963 12.2254 161.608 12.2254C160.884 12.2254 160.475 12.5537 160.475 12.9645C160.475 13.7872 161.829 13.9515 163.908 14.745C166.65 15.8154 168.036 16.965 168.036 18.9373C168.036 21.6786 165.296 23.8716 161.325 23.8716C157.638 23.8716 155.18 22.4192 155.18 20.6642Z" fill="#FF0000"/>
</svg>
