<svg width="63" height="63" viewBox="0 0 63 63" fill="none" xmlns="http://www.w3.org/2000/svg">
<mask id="mask0_150_472" style="mask-type:alpha" maskUnits="userSpaceOnUse" x="15" y="14" width="33" height="33">
<path d="M38.9489 38.3801C42.1067 35.2224 40.0015 24.695 35.2641 19.9576C33.159 17.8517 27.1055 13.3771 20.5257 19.9576C13.9459 26.5367 18.4205 32.5902 20.5257 34.6961C25.2631 39.4335 35.7904 41.5386 38.9489 38.3809V38.3801Z" fill="white" stroke="white" stroke-width="4" stroke-linecap="round" stroke-linejoin="round"/>
<path d="M44.625 43.6848L39.4142 38.4739" stroke="white" stroke-width="4"/>
<path d="M44.1972 41.6772C43.4704 42.404 43.4704 43.5823 44.1972 44.3091C44.9239 45.0359 46.1023 45.0359 46.829 44.3091C47.5558 43.5823 47.5558 42.404 46.829 41.6772C46.1023 40.9505 44.9239 40.9505 44.1972 41.6772Z" fill="white"/>
<path d="M42.6182 43.2562C41.8915 43.9829 41.8915 45.1612 42.6182 45.888C43.345 46.6148 44.5233 46.6148 45.2501 45.888C45.9769 45.1612 45.9769 43.9829 45.2501 43.2562C44.5233 42.5294 43.345 42.5294 42.6182 43.2562Z" fill="white"/>
<path d="M26.7593 28.0523C27.5816 28.0523 28.2481 27.3857 28.2481 26.5635C28.2481 25.7412 27.5816 25.0746 26.7593 25.0746C25.9371 25.0746 25.2705 25.7412 25.2705 26.5635C25.2705 27.3857 25.9371 28.0523 26.7593 28.0523Z" fill="black"/>
<path d="M23.0373 30.2855C23.8596 30.2855 24.5261 29.6189 24.5261 28.7967C24.5261 27.9744 23.8596 27.3079 23.0373 27.3079C22.2151 27.3079 21.5485 27.9744 21.5485 28.7967C21.5485 29.6189 22.2151 30.2855 23.0373 30.2855Z" fill="black"/>
<path d="M26.7593 32.5187C27.5816 32.5187 28.2481 31.8521 28.2481 31.0299C28.2481 30.2076 27.5816 29.5411 26.7593 29.5411C25.9371 29.5411 25.2705 30.2076 25.2705 31.0299C25.2705 31.8521 25.9371 32.5187 26.7593 32.5187Z" fill="black"/>
</mask>
<g mask="url(#mask0_150_472)">
<path d="M14.1045 13.1642H49.8358V48.8955H14.1045V13.1642Z" fill="#223DBB"/>
</g>
<rect width="63" height="63" rx="9" fill="#223DBB" fill-opacity="0.1"/>
</svg>
