<svg width="63" height="63" viewBox="0 0 63 63" fill="none" xmlns="http://www.w3.org/2000/svg">
<path d="M46.7391 23.9604C46.5881 23.5966 46.299 23.3075 45.9352 23.1565C45.7562 23.0802 45.564 23.0397 45.3694 23.0374H37.9254C37.5305 23.0374 37.1519 23.1942 36.8727 23.4734C36.5935 23.7526 36.4366 24.1313 36.4366 24.5262C36.4366 24.921 36.5935 25.2997 36.8727 25.5789C37.1519 25.8581 37.5305 26.015 37.9254 26.015H41.7814L33.459 34.3374L28.5608 29.4243C28.4224 29.2848 28.2577 29.174 28.0763 29.0984C27.8949 29.0229 27.7003 28.9839 27.5038 28.9839C27.3072 28.9839 27.1126 29.0229 26.9312 29.0984C26.7498 29.174 26.5851 29.2848 26.4467 29.4243L17.5139 38.3572C17.3743 38.4956 17.2636 38.6602 17.188 38.8417C17.1124 39.0231 17.0735 39.2177 17.0735 39.4142C17.0735 39.6108 17.1124 39.8054 17.188 39.9868C17.2636 40.1682 17.3743 40.3329 17.5139 40.4713C17.6523 40.6108 17.8169 40.7216 17.9984 40.7972C18.1798 40.8727 18.3744 40.9117 18.5709 40.9117C18.7675 40.9117 18.9621 40.8727 19.1435 40.7972C19.3249 40.7216 19.4896 40.6108 19.628 40.4713L27.5038 32.5806L32.4019 37.4937C32.5403 37.6332 32.705 37.744 32.8864 37.8195C33.0678 37.8951 33.2624 37.934 33.459 37.934C33.6555 37.934 33.8501 37.8951 34.0315 37.8195C34.213 37.744 34.3776 37.6332 34.516 37.4937L43.8806 28.1142V31.9702C43.8806 32.365 44.0375 32.7437 44.3167 33.0229C44.5959 33.3021 44.9746 33.459 45.3694 33.459C45.7643 33.459 46.143 33.3021 46.4222 33.0229C46.7014 32.7437 46.8582 32.365 46.8582 31.9702V24.5262C46.8559 24.3316 46.8154 24.1394 46.7391 23.9604Z" fill="#223DBB"/>
<rect width="63" height="63" rx="9" fill="#223DBB" fill-opacity="0.1"/>
</svg>
