<svg width="63" height="63" viewBox="0 0 63 63" fill="none" xmlns="http://www.w3.org/2000/svg">
<rect width="63" height="63" rx="7.1194" fill="#2F43AC" fill-opacity="0.1"/>
<path fill-rule="evenodd" clip-rule="evenodd" d="M37.7295 36.9853C39.6396 36.9853 40.7071 35.7421 40.7071 34.752C40.7071 33.762 39.6396 32.5188 37.7295 32.5188C35.8193 32.5188 34.7519 33.762 34.7519 34.752C34.7519 35.7421 35.8193 36.9853 37.7295 36.9853ZM37.7295 38.4741C40.1964 38.4741 42.1959 36.8073 42.1959 34.752C42.1959 32.6967 40.1964 31.03 37.7295 31.03C35.2625 31.03 33.2631 32.6967 33.2631 34.752C33.2631 36.8073 35.2625 38.4741 37.7295 38.4741Z" fill="#223DBB"/>
<path d="M24.8714 22.9355C25.3702 22.809 25.8726 22.6065 26.2337 22.34C27.1791 21.6447 27.7277 20.246 26.518 20.3993C26.1659 20.444 25.9121 20.4529 25.7044 20.4604C25.1997 20.4775 24.9749 20.4857 24.3049 20.9792C24.0492 21.1661 23.8121 21.3772 23.597 21.6097C22.5556 20.8356 21.1703 20.4894 18.7472 20.6085C18.6485 20.6085 18.5538 20.6477 18.484 20.7175C18.4142 20.7873 18.375 20.882 18.375 20.9807C18.375 21.0794 18.4142 21.1741 18.484 21.2439C18.5538 21.3137 18.6485 21.3529 18.7472 21.3529H20.0403C20.2532 21.4899 20.4348 21.6179 20.5963 21.74L17.9284 25.0749H17.7706C17.5384 25.0749 17.3095 25.1291 17.102 25.2333C16.8946 25.3375 16.7144 25.4888 16.5758 25.675C16.4372 25.8612 16.3441 26.0773 16.3039 26.3059C16.2637 26.5346 16.2775 26.7694 16.3443 26.9918L16.5676 27.7362C16.6597 28.0429 16.8481 28.3117 17.1051 28.5028C17.362 28.6939 17.6737 28.797 17.9939 28.797H20.4966C20.8112 28.7971 21.1176 28.8969 21.372 29.0821L23.0022 30.2672C23.0514 30.3029 23.102 30.3356 23.1533 30.3639C24.3198 33.3713 25.5503 35.7132 26.9275 36.8916L27.1843 39.9734C27.0003 40.0045 26.8347 40.1036 26.7203 40.251C26.6059 40.3985 26.5511 40.5835 26.5666 40.7694C26.5821 40.9554 26.667 41.1287 26.8042 41.2551C26.9415 41.3815 27.1213 41.4517 27.3079 41.4518H29.5411V34.7522H36.8437C37.9454 35.8249 39.1811 36.666 41.0793 36.9854L41.3279 39.9734C41.144 40.0045 40.9784 40.1036 40.864 40.251C40.7496 40.3985 40.6947 40.5835 40.7103 40.7694C40.7258 40.9554 40.8106 41.1287 40.9479 41.2551C41.0852 41.3815 41.2649 41.4517 41.4515 41.4518H43.6847V28.0526C43.6883 27.042 43.3557 26.0589 42.7393 25.2581C43.2046 25.3831 43.5299 25.5655 43.7592 25.7866C44.1738 26.1848 44.4291 26.8556 44.4291 28.0526L44.7172 32.0872C44.5423 32.3589 44.4291 32.7847 44.4291 33.2634C44.4291 34.0859 44.7626 34.7522 45.1735 34.7522C45.5844 34.7522 45.9179 34.0859 45.9179 33.2634C45.9179 32.7847 45.8048 32.3589 45.6299 32.0872L45.9179 28.0526C45.9179 26.6873 45.6328 25.5216 44.7909 24.7124C43.9594 23.9137 42.7393 23.6129 41.2379 23.5876C41.1813 23.5861 39.6322 23.5861 39.5905 23.5861V23.5913C39.5216 23.5879 39.4526 23.5862 39.3836 23.5861H28.4245C26.9848 23.5861 25.8972 23.3717 24.9853 23.0889L24.8714 22.9355Z" fill="#223DBB"/>
<path d="M34.0626 35.3239L32.7614 35.8561L33.3256 37.234L34.6261 36.7025L34.0626 35.3239ZM34.6596 38.3685L35.4479 36.902L36.7595 37.6077L35.9712 39.0742L34.6596 38.3685ZM37.7369 37.6687L38.0526 39.3034L39.5146 39.0206L39.1982 37.3858L37.7362 37.6687H37.7369Z" fill="#223DBB"/>
</svg>
