<svg width="63" height="63" viewBox="0 0 63 63" fill="none" xmlns="http://www.w3.org/2000/svg">
<rect width="63" height="63" rx="9" fill="#223DBB" fill-opacity="0.1"/>
<path d="M26.3704 26.6528C28.0355 26.3698 29.2704 24.8533 29.4583 23.0417C29.6491 21.1994 30.0793 13.7959 27.3002 14.2668C20.091 15.4896 20.597 27.6318 26.3704 26.6528ZM35.8557 26.6528C41.6277 27.6318 42.1337 15.4896 34.9245 14.2661C32.146 13.7952 32.5755 21.1987 32.7656 23.041C32.9543 24.8533 34.1906 26.3698 35.8557 26.6528ZM23.409 32.3733C23.409 31.41 23.0653 30.5368 22.5114 29.9014C21.6003 28.7109 18.7039 26.3033 17.9929 26.92C16.5086 28.2106 16.5565 31.3872 17.4505 33.6954C17.91 34.9789 19.0198 35.8814 20.3168 35.8814C22.0241 35.8814 23.409 34.3107 23.409 32.3733ZM44.2311 26.92C43.5215 26.3033 40.6251 28.7109 39.7139 29.9014C39.1601 30.5368 38.8157 31.41 38.8157 32.3733C38.8157 34.3107 40.202 35.8814 41.9079 35.8814C43.2056 35.8814 44.3161 34.9789 44.7756 33.6954C45.6675 31.3872 45.7168 28.2106 44.2311 26.92ZM38.4169 37.8374C35.7899 36.5275 35.8714 34.0048 35.274 31.703C34.7987 29.8671 33.1158 28.5094 31.1127 28.5094C30.1836 28.5069 29.2787 28.8059 28.534 29.3615C27.7893 29.9172 27.245 30.6994 26.9829 31.5908C26.3433 33.7933 26.7285 36.3574 23.865 37.8202C21.5388 38.5784 20.597 39.6847 20.597 42.3009C20.597 44.4262 22.4214 46.7016 24.7761 46.9846C27.4031 47.3805 29.4526 46.8631 31.1127 45.917C32.7728 46.8631 34.8209 47.3798 37.4522 46.9846C39.8054 46.7016 41.6306 44.4348 41.6306 42.3009C41.6299 39.6275 40.748 38.6313 38.4169 37.8374ZM35.3176 41.0346H32.5941L32.5977 43.8931H29.6277L29.632 41.0346H26.742V38.1761H29.6327L29.6284 35.3176H32.5984L32.5948 38.1761H35.3176V41.0346Z" fill="#223DBB"/>
</svg>
